<svg id="Layer_1" data-name="Layer 1" xmlns="http://www.w3.org/2000/svg" viewBox="0 0 415.0334 150"><defs><style>.cls-1{fill:#222;}</style></defs><path class="cls-1" d="M54.65,60.7356H66.16L42.65,117.5534H31.2209l9.0615-22.2861L25.18,60.7356H36.9353l8.98,22.0415Z"/><path class="cls-1" d="M68.53,79.8381c0-12.0815,9.6328-20.082,20.49-20.082s20.49,8.0005,20.49,20.082c0,12.0005-9.6328,20.0005-20.49,20.0005S68.53,91.8386,68.53,79.8381Zm30.123,0c0-5.959-4.3266-10.1225-9.6328-10.1225s-9.6328,4.1635-9.6328,10.1225a9.6411,9.6411,0,1,0,19.2656,0Z"/><path class="cls-1" d="M145.757,60.9807l-2.4487,10.2041a11.103,11.103,0,0,0-5.47-1.3877c-5.4693,0-9.2246,5.1431-9.2246,16.0005V98.8591H117.92V60.7356h10.6128v8.1635c2.1226-6.3671,6.4492-9.143,11.1836-9.143A13.5747,13.5747,0,0,1,145.757,60.9807Z"/><path class="cls-1" d="M178.9836,60.7356h10.6943V98.8591H178.9836v-5.47a15.09,15.09,0,0,1-12.5718,6.4492c-10.5307,0-18.3677-8.1631-18.3677-20.0005s7.6739-20.082,18.6128-20.082c4.898,0,9.7959,2.1225,12.3267,6.041Zm-.3267,19.1025a10.034,10.034,0,0,0-9.9589-10.1225,10.0873,10.0873,0,0,0,.0815,20.1635A10.0534,10.0534,0,0,0,178.6569,79.8381Z"/><path class="cls-1" d="M237.6814,77.9607V98.8591H226.987V78.532c0-5.959-3.5918-8.6534-7.2656-8.6534-3.8364,0-8.5713,2.0411-8.5713,8.98V98.8591H200.4558V60.7356H211.15v6.4492c1.6328-5.1431,7.6738-7.4287,11.4287-7.4287C232.5388,59.7561,237.7634,66.532,237.6814,77.9607Z"/><path class="cls-1" d="M285.1931,77.9607V98.8591H274.4987V78.532c0-5.959-3.5918-8.6534-7.2656-8.6534-3.8369,0-8.5713,2.0411-8.5713,8.98V98.8591H247.9675V60.7356h10.6943v6.4492c1.6328-5.1431,7.6739-7.4287,11.4287-7.4287C280.0505,59.7561,285.2751,66.532,285.1931,77.9607Z"/><path class="cls-1" d="M324.1345,60.7356h10.6933V98.8591H324.1345v-5.47a15.0913,15.0913,0,0,1-12.5723,6.4492c-10.53,0-18.3672-8.1631-18.3672-20.0005s7.6729-20.082,18.6123-20.082c4.8985,0,9.7959,2.1225,12.3272,6.041Zm-.3272,19.1025a10.0343,10.0343,0,0,0-9.959-10.1225,10.0873,10.0873,0,0,0,.0811,20.1635A10.0531,10.0531,0,0,0,323.8073,79.8381Z"/><path class="cls-1" d="M387.239,79.7566c0,12.3266-8.8985,20.082-18.6944,20.082-4.3261,0-9.5507-1.7959-12.2451-5.7144v23.4292H345.6052V60.7356H356.3v4.6533c2.6944-3.8369,7.919-5.6328,12.2451-5.6328C378.3405,59.7561,387.239,67.593,387.239,79.7566ZM376.3,79.8381a9.8409,9.8409,0,1,0-19.6738,0,10.1052,10.1052,0,0,0,9.8779,10.041A9.88,9.88,0,0,0,376.3,79.8381Z"/></svg>