<svg id="Layer_1" data-name="Layer 1" xmlns="http://www.w3.org/2000/svg" viewBox="0 0 150 150"><defs><style>.cls-1{fill:#222;}</style></defs><path class="cls-1" d="M136.4605,102.9163a33.5428,33.5428,0,0,1-33.5163,33.5162v-8.379a25.1751,25.1751,0,0,0,25.1372-25.1372ZM13.5675,47.0558A33.5428,33.5428,0,0,1,47.0837,13.54v8.3791A25.1751,25.1751,0,0,0,21.9465,47.0558ZM52.7256,32.0852,27.03,57.781A46.0957,46.0957,0,0,0,92.219,122.97l39.4933-39.4934A6.9914,6.9914,0,0,0,121.825,73.59l-24.69,24.69-3.9661-3.966L129.7013,57.781a6.9914,6.9914,0,1,0-9.8873-9.8873L87.2474,80.46l-3.9661-3.9661,38.4879-38.4879a6.9914,6.9914,0,0,0-9.8873-9.8873L73.394,66.607l-3.8544-3.91,30.6116-30.6115a6.9914,6.9914,0,0,0-9.8873-9.8873L47.6982,64.7636a22.3584,22.3584,0,0,1-1.8434,29.4943l-3.9661-3.9661a16.7562,16.7562,0,0,0,0-23.6848l-1.9551-1.9551L62.6688,41.9166a6.9789,6.9789,0,0,0,0-9.8873A7.098,7.098,0,0,0,52.7256,32.0852Z"/></svg>